<svg width="20" height="20" viewBox="0 0 20 20" fill="none" xmlns="http://www.w3.org/2000/svg">
  <g clip-path="url(#clip0_7223_99)">
    <path
      d="M10 3.0127C9.58594 3.0127 9.25 2.67676 9.25 2.2627V1.25C9.25 0.83594 9.58594 0.5 10 0.5C10.4141 0.5 10.75 0.83594 10.75 1.25V2.2627C10.75 2.67676 10.4141 3.0127 10 3.0127Z"
      fill="currentColor" />
    <path
      d="M10 19.5C9.58594 19.5 9.25 19.1641 9.25 18.75V17.75C9.25 17.3359 9.58594 17 10 17C10.4141 17 10.75 17.3359 10.75 17.75V18.75C10.75 19.1641 10.4141 19.5 10 19.5Z"
      fill="currentColor" />
    <path
      d="M18.75 10.75H17.751C17.3369 10.75 17.001 10.4141 17.001 10C17.001 9.58594 17.3369 9.25 17.751 9.25H18.75C19.1641 9.25 19.5 9.58594 19.5 10C19.5 10.4141 19.1641 10.75 18.75 10.75Z"
      fill="currentColor" />
    <path
      d="M2.24512 10.75H1.25C0.83594 10.75 0.5 10.4141 0.5 10C0.5 9.58594 0.83594 9.25 1.25 9.25H2.24512C2.65918 9.25 2.99512 9.58594 2.99512 10C2.99512 10.4141 2.65918 10.75 2.24512 10.75Z"
      fill="currentColor" />
    <path
      d="M4.51953 5.26954C4.32715 5.26954 4.13574 5.1963 3.98926 5.04981L3.28223 4.34278C2.98926 4.04981 2.98926 3.5752 3.28223 3.28223C3.5752 2.98926 4.04981 2.98926 4.34278 3.28223L5.04981 3.98926C5.34278 4.28223 5.34278 4.75684 5.04981 5.04981C4.90333 5.19629 4.71191 5.26954 4.51953 5.26954Z"
      fill="currentColor" />
    <path
      d="M16.1875 16.9375C15.9951 16.9375 15.8037 16.8643 15.6572 16.7178L14.9521 16.0127C14.6592 15.7197 14.6592 15.2451 14.9521 14.9521C15.2451 14.6592 15.7197 14.6592 16.0127 14.9521L16.7178 15.6572C17.0107 15.9502 17.0107 16.4248 16.7178 16.7178C16.5713 16.8642 16.3799 16.9375 16.1875 16.9375Z"
      fill="currentColor" />
    <path
      d="M15.4766 5.26854C15.2842 5.26854 15.0908 5.19432 14.9443 5.04686C14.6524 4.75291 14.6543 4.27831 14.9483 3.98631L15.6592 3.28026C15.9531 2.98827 16.4277 2.99022 16.7197 3.28417C17.0117 3.57812 17.0098 4.05272 16.7158 4.34472L16.0049 5.05077C15.8584 5.19628 15.668 5.26854 15.4766 5.26854Z"
      fill="currentColor" />
    <path
      d="M3.8125 16.9375C3.62012 16.9375 3.42773 16.8643 3.28125 16.7168C2.98926 16.4238 2.98926 15.9492 3.2832 15.6563L3.99023 14.9512C4.2832 14.6592 4.75781 14.6592 5.05078 14.9531C5.34277 15.2461 5.34277 15.7207 5.04883 16.0137L4.3418 16.7188C4.19532 16.8643 4.00391 16.9375 3.8125 16.9375Z"
      fill="currentColor" />
    <path
      d="M10 4C6.69189 4 4 6.69189 4 10C4 13.3081 6.69189 16 10 16C13.3081 16 16 13.3081 16 10C16 6.69189 13.3081 4 10 4ZM5.5 10C5.5 7.5188 7.5188 5.5 10 5.5V14.5C7.5188 14.5 5.5 12.4812 5.5 10Z"
      fill="currentColor" />
  </g>
  <defs>
    <clipPath id="clip0_7223_99">
      <rect width="20" height="20" fill="white" />
    </clipPath>
  </defs>
</svg>
