<?xml version="1.0" encoding="UTF-8"?>
<svg id="Layer_1" data-name="Layer 1" xmlns="http://www.w3.org/2000/svg" viewBox="0 0 132 24">
  <defs>
    <style>
      .cls-1 {
        fill: #eb1000;
      }

      .cls-2 {
        fill: #fff;
      }
    </style>
  </defs>
  <g id="spectrum-ExperienceCloud">
    <rect class="cls-1" width="24.62" height="24" rx="4.36" ry="4.36"/>
    <path class="cls-2" d="M19.14,18.05h-2.92c-.26,0-.5-.15-.6-.39l-3.17-7.42c-.02-.07-.1-.12-.17-.1-.04.01-.08.05-.09.09l-1.98,4.71c-.04.09,0,.18.09.22.02,0,.04.01.06.01h2.17c.13,0,.26.08.31.2l.95,2.12c.08.2,0,.43-.21.51-.05.02-.1.03-.15.03h-7.92c-.2,0-.36-.16-.36-.36,0-.05.01-.1.03-.14l5.03-11.99c.11-.26.36-.43.64-.43h2.9c.28,0,.53.17.64.43l5.07,11.99c.08.18,0,.4-.19.47-.04.02-.09.03-.14.03h0v.02h0Z"/>
  </g>
  <g>
    <path fill="currentColor" d="M35.6,5.81h3.57l4.57,12.39h-3.27l-.74-2.16h-4.9l-.74,2.16h-3.14l4.66-12.39ZM38.82,13.36l-1.54-4.51-1.54,4.51h3.07Z"/>
    <path fill="currentColor" d="M52.84,17.54c-.8.43-2.29.83-3.87.83-2.76,0-5.25-1.57-5.25-4.94s2.5-5.01,5.07-5.01c.5,0,.87.04,1.13.09v-3.25h2.92v12.28ZM48.89,10.81c-1.2,0-2.22.76-2.22,2.57s.94,2.59,2.24,2.59c.33,0,.76-.02,1.02-.09v-4.9c-.26-.09-.59-.17-1.04-.17Z"/>
    <path fill="currentColor" d="M63.78,13.38c0,2.85-1.92,4.99-4.86,4.99-3.27,0-4.98-2.37-4.98-4.96,0-2.81,1.89-5.01,4.99-5.01,2.9,0,4.85,2.16,4.85,4.97ZM56.88,13.32c0,1.52.63,2.66,2.03,2.66,1.24,0,1.94-1,1.94-2.61s-.74-2.59-1.98-2.59-2,.92-2,2.53Z"/>
    <path fill="currentColor" d="M67.81,5.26v3.33c.31-.09.78-.19,1.37-.19,1.87,0,4.79.98,4.79,4.83,0,3.5-2.83,5.14-5.21,5.14-1.59,0-2.85-.28-3.87-.74V5.26h2.92ZM67.81,15.84c.28.11.63.15,1.04.15,1.37-.02,2.2-1.02,2.2-2.63,0-1.33-.61-2.55-2.22-2.55-.41,0-.76.07-1.02.15v4.88Z"/>
    <path fill="currentColor" d="M84.22,13.04c0,.41-.02.92-.07,1.28h-6.23c.33,1.09,1.26,1.63,2.81,1.63,1.05,0,1.92-.19,2.77-.63l.02,2.39c-.87.48-1.92.67-3.2.67-3.25,0-5.34-1.81-5.34-5.03,0-2.88,2.02-4.94,4.75-4.94,2.92,0,4.49,2.02,4.49,4.64ZM77.86,12.27h3.62c-.11-.92-.7-1.59-1.76-1.59s-1.65.54-1.87,1.59Z"/>
    <path fill="currentColor" d="M88.73,5.81h3.09v9.69h5.9v2.7h-8.99V5.81Z"/>
    <path fill="currentColor" d="M106.95,17.52c-1.18.55-2.5.85-4.16.87-2.39,0-4.2-1.04-4.2-3.22s1.9-3.01,4.05-3.01c.65,0,1.09.04,1.48.13v-.17c0-.78-.54-1.33-1.91-1.33-.92,0-1.96.28-2.77.67l-.04-2.4c.92-.37,2-.65,3.27-.65,2.79,0,4.27,1.31,4.27,4.07v5.05ZM104.12,14.34c-.28-.09-.63-.15-1.15-.15-.98,0-1.55.31-1.55.94s.54,1.04,1.52,1.04c.5,0,.89-.07,1.18-.2v-1.63Z"/>
    <path fill="currentColor" d="M111.32,5.26v3.33c.31-.09.78-.19,1.37-.19,1.87,0,4.79.98,4.79,4.83,0,3.5-2.83,5.14-5.21,5.14-1.59,0-2.85-.28-3.87-.74V5.26h2.92ZM111.32,15.84c.28.11.63.15,1.04.15,1.37-.02,2.2-1.02,2.2-2.63,0-1.33-.61-2.55-2.22-2.55-.41,0-.76.07-1.02.15v4.88Z"/>
    <path fill="currentColor" d="M118.44,17.59l.02-2.63c.94.61,2.26,1.05,3.27,1.05.74,0,1.13-.24,1.13-.67,0-.46-.48-.65-1.37-.92-1.42-.43-3.11-1.02-3.11-2.96s1.55-3.07,3.96-3.07c1.07,0,2,.19,2.77.52l-.02,2.52c-.61-.37-1.81-.68-2.68-.68-.81,0-1.07.24-1.07.57,0,.41.35.54,1.37.83,1.68.5,3.12,1.05,3.12,3.05,0,1.89-1.57,3.16-3.92,3.16-1.31,0-2.5-.24-3.48-.78Z"/>
  </g>
</svg>
