<?xml version="1.0" encoding="UTF-8"?><svg id="Layer_1" xmlns="http://www.w3.org/2000/svg" viewBox="0 0 139.42 24">
    <defs>
        <style>
            .cls-1 {
                fill: #eb1000;
            }

            .cls-2 {
                fill: #fff;
            }
        </style>
    </defs>
    <g id="spectrum-ExperienceCloud">
        <rect class="cls-1" width="24.62" height="24" rx="4.36" ry="4.36" />
        <path class="cls-2"
            d="M19.14,18.05h-2.92c-.26,0-.5-.15-.6-.39l-3.17-7.42c-.02-.07-.1-.12-.17-.1-.04.01-.08.05-.09.09l-1.98,4.71c-.04.09,0,.18.09.22.02,0,.04.01.06.01h2.17c.13,0,.26.08.31.2l.95,2.12c.08.2,0,.43-.21.51-.05.02-.1.03-.15.03h-7.92c-.2,0-.36-.16-.36-.36,0-.05.01-.1.03-.14l5.03-11.99c.11-.26.36-.43.64-.43h2.9c.28,0,.53.17.64.43l5.07,11.99c.08.18,0,.4-.19.47-.04.02-.09.03-.14.03h0v.02h0Z" />
    </g>
    <path fill="currentColor"
        d="M39.41,6.24l-.02,2.98c-.72-.54-2.03-1.13-3.77-1.13-1.24,0-1.68.44-1.68.98s.35.78,1.87,1.2c3.35.94,4.44,2.09,4.44,4.05,0,2.48-2.09,3.94-5.18,3.94-1.81,0-3.31-.5-4.35-1.15l.02-3.12c1.13.89,2.77,1.57,4.35,1.57,1.2,0,1.78-.33,1.78-1s-.59-.98-2.05-1.39c-2.5-.7-4.22-1.52-4.22-3.9,0-2.24,1.81-3.87,5.01-3.87,1.54,0,2.94.28,3.81.83Z" />
    <path fill="currentColor"
        d="M41.33,14.32v-5.92h2.92v5.77c0,1.11.54,1.66,1.57,1.66.5,0,.87-.04,1.18-.15v-7.29h2.92v8.82c-1.13.59-2.48,1-4.11,1-3.13,0-4.49-1.26-4.49-3.9Z" />
    <path fill="currentColor"
        d="M62.45,12.2c0-1.04-.54-1.61-1.44-1.61-.55,0-.96.15-1.28.3.06.3.07.63.07.98l.02,6.16h-2.9v-5.88c0-.96-.48-1.52-1.42-1.52-.48,0-.83.04-1.22.19v7.21h-2.9v-8.93c1.04-.44,2.59-.87,4.25-.87,1.18,0,2.11.2,2.79.63,1-.41,1.92-.63,2.92-.63,2.37,0,4.01,1.18,4.01,3.94v5.86h-2.9v-5.83Z" />
    <path fill="currentColor"
        d="M77.86,12.2c0-1.04-.54-1.61-1.44-1.61-.55,0-.96.15-1.28.3.06.3.07.63.07.98l.02,6.16h-2.9v-5.88c0-.96-.48-1.52-1.42-1.52-.48,0-.83.04-1.22.19v7.21h-2.9v-8.93c1.04-.44,2.59-.87,4.25-.87,1.18,0,2.11.2,2.79.63,1-.41,1.92-.63,2.92-.63,2.37,0,4.01,1.18,4.01,3.94v5.86h-2.9v-5.83Z" />
    <path fill="currentColor"
        d="M85.18,6.48c0,.81-.56,1.42-1.52,1.42s-1.54-.59-1.54-1.42.61-1.41,1.54-1.41,1.52.59,1.52,1.41ZM82.2,8.39h2.92v9.64h-2.92v-9.64Z" />
    <path fill="currentColor"
        d="M90.45,8.44h1.92v2.37h-1.92v3.66c0,.92.35,1.33,1.07,1.33.22,0,.55-.04.83-.15l.02,2.31c-.41.15-.85.24-1.63.24-2.09,0-3.2-1.02-3.2-3.35v-4.05h-1.46v-2.37h1.46v-2.48l2.9-.02v2.5Z" />
    <path fill="currentColor" d="M97.07,5.63h3.09v9.69h5.9v2.7h-8.99V5.63Z" />
    <path fill="currentColor"
        d="M115.28,17.34c-1.18.55-2.5.85-4.16.87-2.39,0-4.2-1.04-4.2-3.22s1.9-3.01,4.05-3.01c.65,0,1.09.04,1.48.13v-.17c0-.78-.54-1.33-1.91-1.33-.92,0-1.96.28-2.77.67l-.04-2.4c.92-.37,2-.65,3.27-.65,2.79,0,4.27,1.31,4.27,4.07v5.05ZM112.45,14.16c-.28-.09-.63-.15-1.15-.15-.98,0-1.55.31-1.55.94s.54,1.04,1.52,1.04c.5,0,.89-.07,1.18-.2v-1.63Z" />
    <path fill="currentColor"
        d="M119.64,5.08v3.33c.31-.09.78-.19,1.37-.19,1.87,0,4.79.98,4.79,4.83,0,3.5-2.83,5.14-5.21,5.14-1.59,0-2.85-.28-3.87-.74V5.08h2.92ZM119.64,15.66c.28.11.63.15,1.04.15,1.37-.02,2.2-1.02,2.2-2.63,0-1.33-.61-2.55-2.22-2.55-.41,0-.76.07-1.02.15v4.88Z" />
    <path fill="currentColor"
        d="M126.75,17.41l.02-2.63c.94.61,2.26,1.05,3.27,1.05.74,0,1.13-.24,1.13-.67,0-.46-.48-.65-1.37-.92-1.42-.43-3.11-1.02-3.11-2.96s1.55-3.07,3.96-3.07c1.07,0,2,.19,2.77.52l-.02,2.52c-.61-.37-1.81-.68-2.68-.68-.81,0-1.07.24-1.07.57,0,.41.35.54,1.37.83,1.68.5,3.12,1.05,3.12,3.05,0,1.89-1.57,3.16-3.92,3.16-1.31,0-2.5-.24-3.48-.78Z" />
</svg>
